<svg version="1.1" id="Layer_1" xmlns="http://www.w3.org/2000/svg" xmlns:xlink="http://www.w3.org/1999/xlink" x="0px" y="0px"
	 width="100%" viewBox="0 0 503 405" enable-background="new 0 0 503 405" xml:space="preserve">
<path fill="#FFFFFF" opacity="1.000000" stroke="none" 
	d="
M366.000000,406.000000 
	C244.033432,406.000000 122.566856,406.000000 1.050143,406.000000 
	C1.050143,271.070587 1.050143,136.141159 1.050143,1.105858 
	C168.549911,1.105858 336.099915,1.105858 503.824951,1.105858 
	C503.824951,135.999817 503.824951,270.999878 503.824951,406.000000 
	C458.141113,406.000000 412.320557,406.000000 366.000000,406.000000 
M194.401672,183.887268 
	C165.802094,231.602402 137.333694,279.397156 108.467522,326.950470 
	C103.916496,334.447693 105.594650,341.799591 105.311043,349.546082 
	C107.095978,349.647217 108.240906,349.768707 109.385849,349.768829 
	C204.361755,349.778076 299.337708,349.752899 394.313477,349.861359 
	C398.541901,349.866180 399.666077,348.509827 399.638550,344.433136 
	C399.477722,320.606903 399.564392,296.779083 399.557190,272.951782 
	C399.555176,266.362244 399.539032,266.345245 392.877930,266.344574 
	C359.719696,266.341125 326.561432,266.351532 293.403198,266.337311 
	C291.862030,266.336639 290.320892,266.146790 288.003937,265.993835 
	C289.177795,263.754578 289.849915,262.288025 290.679382,260.916687 
	C325.333038,203.623062 359.788879,146.207642 394.868530,89.175934 
	C400.941528,79.302559 399.014893,69.551697 399.406342,59.124344 
	C397.239380,59.015125 395.606415,58.860996 393.973450,58.860806 
	C303.163147,58.850227 212.352798,58.887325 121.542702,58.751987 
	C116.941513,58.745132 116.056168,60.272263 116.086052,64.493454 
	C116.266518,89.985710 116.293327,115.480904 116.072495,140.972519 
	C116.030846,145.779755 117.408485,147.191635 122.232994,147.157669 
	C151.390808,146.952347 180.550812,147.051956 209.710083,147.067719 
	C211.450760,147.068665 213.191345,147.226074 216.222366,147.373398 
	C208.690063,159.973175 201.730438,171.614990 194.401672,183.887268 
z"/>
<path fill="#029622" opacity="1.000000" stroke="none" 
	d="
M194.586243,183.572052 
	C201.730438,171.614990 208.690063,159.973175 216.222366,147.373398 
	C213.191345,147.226074 211.450760,147.068665 209.710083,147.067719 
	C180.550812,147.051956 151.390808,146.952347 122.232994,147.157669 
	C117.408485,147.191635 116.030846,145.779755 116.072495,140.972519 
	C116.293327,115.480904 116.266518,89.985710 116.086052,64.493454 
	C116.056168,60.272263 116.941513,58.745132 121.542702,58.751987 
	C212.352798,58.887325 303.163147,58.850227 393.973450,58.860806 
	C395.606415,58.860996 397.239380,59.015125 399.406342,59.124344 
	C399.014893,69.551697 400.941528,79.302559 394.868530,89.175934 
	C359.788879,146.207642 325.333038,203.623062 290.679382,260.916687 
	C289.849915,262.288025 289.177795,263.754578 288.003937,265.993835 
	C290.320892,266.146790 291.862030,266.336639 293.403198,266.337311 
	C326.561432,266.351532 359.719696,266.341125 392.877930,266.344574 
	C399.539032,266.345245 399.555176,266.362244 399.557190,272.951782 
	C399.564392,296.779083 399.477722,320.606903 399.638550,344.433136 
	C399.666077,348.509827 398.541901,349.866180 394.313477,349.861359 
	C299.337708,349.752899 204.361755,349.778076 109.385849,349.768829 
	C108.240906,349.768707 107.095978,349.647217 105.311043,349.546082 
	C105.594650,341.799591 103.916496,334.447693 108.467522,326.950470 
	C137.333694,279.397156 165.802094,231.602402 194.586243,183.572052 
z"/>
</svg>